<?xml version="1.0" standalone="no"?>
<!DOCTYPE svg PUBLIC "-//W3C//DTD SVG 20010904//EN"
 "http://www.w3.org/TR/2001/REC-SVG-20010904/DTD/svg10.dtd">
<svg version="1.0" xmlns="http://www.w3.org/2000/svg"
 width="2888.000000pt" height="2888.000000pt" viewBox="0 0 2888.000000 2888.000000"
 preserveAspectRatio="xMidYMid meet">

<g transform="translate(0.000000,2888.000000) scale(0.100000,-0.100000)"
fill="#000000" stroke="none">
<path d="M8535 19845 c-277 -52 -490 -246 -577 -525 l-23 -75 -3 -4809 c-2
-4289 -1 -4816 13 -4869 22 -86 68 -145 144 -184 l63 -33 430 0 c291 0 443 4
468 11 64 19 131 78 165 144 l30 59 5 4415 5 4416 22 35 c29 48 61 76 105 95
31 12 92 15 371 15 297 0 342 -2 409 -19 79 -21 172 -63 248 -114 25 -16 747
-731 1605 -1588 1417 -1415 1564 -1559 1603 -1569 97 -25 196 33 222 131 8 28
10 237 8 662 -4 610 -4 623 -26 695 -25 81 -59 153 -105 222 -42 63 -2678
2702 -2752 2755 -78 55 -146 89 -237 117 l-73 22 -1025 3 c-812 1 -1040 -1
-1095 -12z"/>
<path d="M15105 19845 c-276 -51 -490 -246 -577 -525 l-23 -75 -3 -4809 c-2
-4289 -1 -4816 13 -4869 22 -86 68 -145 144 -184 l63 -33 430 0 c291 0 443 4
468 11 64 19 131 78 165 144 l30 59 5 1535 5 1536 23 37 c23 37 107 88 145 88
82 0 17 61 1737 -1655 1616 -1613 1636 -1632 1717 -1674 161 -82 151 -81 878
-81 l642 0 34 23 c70 47 100 127 79 208 -10 40 -186 219 -2030 2064 -1110
1111 -2023 2030 -2030 2043 -34 68 1 182 70 225 l35 22 1665 5 c1850 6 1707 1
1863 74 198 92 344 269 397 481 20 79 20 109 18 2435 l-3 2355 -23 65 c-72
199 -197 342 -377 431 -167 82 123 74 -2845 76 -2137 1 -2658 -1 -2715 -12z
m4557 -1340 c28 -20 52 -49 71 -85 l27 -54 -2 -1476 -3 -1477 -30 -48 c-22
-36 -45 -57 -84 -77 l-53 -28 -1790 0 c-1313 0 -1801 3 -1829 11 -52 16 -103
61 -128 112 l-21 43 0 1472 c0 1309 2 1477 16 1510 20 49 60 90 109 113 39 18
105 19 1857 16 l1816 -2 44 -30z"/>
</g>
</svg>
